# xmcd
#
# Track frame offsets: 
#        150
#        18184
#        34245
#        55323
#        81840
#        95450
#        110915
#        125996
#        145211
#        169667
#        192095
#
# Disc length: 2820 seconds
#
# Revision: 0
# Processed by: cddbd v1.5.2PL0 Copyright (c) Steve Scherf et al.
# Submitted via: ExactAudioCopyFreeDBPlugin 1.0
#
DISCID=990b020b
DTITLE=Aluisio Rockembach - Santa Flor
DYEAR=2008
DGENRE=Instrumental
TTITLE0=Pelo Colorado
TTITLE1=Dois Caminhos
TTITLE2=Santa Flor
TTITLE3=Silencio E Pedra
TTITLE4=Lugar Incomum
TTITLE5=La Pelea
TTITLE6=Kerayvoti
TTITLE7=Amansando Em Sol Maior
TTITLE8=Camino Del Recuerdo
TTITLE9=Partindo
TTITLE10=Genuino
EXTD=
EXTT0=
EXTT1=
EXTT2=
EXTT3=
EXTT4=
EXTT5=
EXTT6=
EXTT7=
EXTT8=
EXTT9=
EXTT10=
PLAYORDER=
